<?xml version="1.0" encoding="utf-8"?>
<!-- Generator: Adobe Illustrator 22.0.1, SVG Export Plug-In . SVG Version: 6.00 Build 0)  -->
<svg version="1.1" xmlns="http://www.w3.org/2000/svg" xmlns:xlink="http://www.w3.org/1999/xlink" x="0px" y="0px"
	 viewBox="0 0 144.2 156.7" style="enable-background:new 0 0 144.2 156.7;" xml:space="preserve">
<style type="text/css">
	.st0{fill:#024638;}
	.st1{fill:#84754E;}
	.st2{fill:#8A1538;}
	.st3{fill:#721E22;}
</style>
<g transform="translate(10.668 134.718)">
	<path class="st0" d="M122.8,21.6v-3.2c0-0.5-0.2-1-0.5-1.4c-0.3-0.3-0.8-0.5-1.3-0.5c-0.5,0-1.1,0.2-1.4,0.6v-0.6h-0.7v5h0.7v-3.1
		c0-0.7,0.5-1.3,1.2-1.3c0.7,0,1.3,0.5,1.3,1.2c0,0.1,0,0.1,0,0.2v3.1L122.8,21.6z M116.8,19.1c0.1,0.5-0.1,1.1-0.4,1.6
		c-0.2,0.2-0.6,0.4-0.9,0.4c-0.3,0-0.7-0.1-0.9-0.4c-0.5-1-0.5-2.1,0-3.1c0.2-0.2,0.6-0.4,0.9-0.4c0.3,0,0.7,0.1,0.9,0.4
		C116.7,18,116.8,18.5,116.8,19.1 M117.5,19.1c0.1-0.7-0.1-1.4-0.6-2c-0.8-0.8-2.1-0.8-2.9,0c-0.8,1.2-0.8,2.8,0,4
		c0.8,0.8,2.1,0.8,2.9,0C117.4,20.5,117.6,19.8,117.5,19.1 M112,16.6h-0.7v5h0.7V16.6z M112.1,14.3h-0.8v0.8h0.8V14.3z M110,21.6V21
		h-0.4c-0.5,0-0.7-0.3-0.7-0.7v-3.1h1.1v-0.6h-1.1V15h-0.7v1.6h-0.6v0.6h0.6v3.1c-0.1,0.7,0.4,1.3,1.1,1.3c0.1,0,0.1,0,0.2,0
		L110,21.6z M105.8,19.8c0,0.3-0.1,0.6-0.3,0.9c-0.3,0.3-0.7,0.4-1.1,0.3c-0.8,0-1.2-0.3-1.2-0.9s0.4-0.9,1.1-0.9h1.4L105.8,19.8z
		 M106.5,21.6v-3.4c0-1.1-0.7-1.7-2-1.7c-0.7-0.1-1.4,0.2-1.8,0.7l0.5,0.5c0.3-0.4,0.8-0.6,1.3-0.6c0.9,0,1.3,0.4,1.3,1.1v0.5h-1.5
		c-1.1,0-1.7,0.6-1.7,1.5c0,0.4,0.1,0.7,0.4,1c0.4,0.4,0.9,0.5,1.4,0.5c0.5,0.1,1.1-0.1,1.5-0.5v0.5L106.5,21.6z M100.5,19.1
		c0,1-0.2,1.9-1.3,1.9S98,20.1,98,19.1s0.2-1.9,1.3-1.9S100.5,18.1,100.5,19.1 M101.3,21.6v-7.3h-0.7v2.8c-0.3-0.4-0.9-0.7-1.4-0.6
		c-0.5,0-0.9,0.1-1.2,0.4c-0.8,1.3-0.8,3,0,4.3c0.3,0.3,0.8,0.5,1.2,0.4c0.6,0,1.1-0.2,1.4-0.7v0.6L101.3,21.6z M96,21.6v-3.2
		c0-0.5-0.2-1-0.5-1.4c-0.3-0.3-0.8-0.5-1.3-0.5c-0.5,0-1.1,0.2-1.4,0.6v-0.6H92v5h0.7v-3.1c-0.1-0.6,0.4-1.2,1-1.3
		c0.1,0,0.2,0,0.2,0c0.6,0,1.2,0.4,1.2,1.1c0,0.1,0,0.2,0,0.3v3.1L96,21.6z M90.4,21.6v-5h-0.7v3.1c0.1,0.7-0.4,1.2-1,1.3
		c-0.1,0-0.2,0-0.2,0c-0.8,0-1.2-0.4-1.2-1.3v-3.1h-0.7v3.2c0,0.5,0.2,1,0.5,1.4c0.4,0.3,0.8,0.5,1.3,0.5c0.5,0,1.1-0.2,1.4-0.6v0.6
		L90.4,21.6z M84.4,19.1c0.1,0.5-0.1,1.1-0.4,1.6C83.7,20.9,83.4,21,83,21c-0.3,0-0.7-0.1-0.9-0.4c-0.5-1-0.5-2.1,0-3.1
		c0.2-0.2,0.6-0.4,0.9-0.4c0.3,0,0.7,0.1,0.9,0.4C84.3,18,84.4,18.5,84.4,19.1 M85.1,19.1c0.1-0.7-0.1-1.4-0.6-2
		c-0.8-0.8-2.1-0.8-2.9,0c-0.8,1.2-0.8,2.8,0,4c0.8,0.8,2.1,0.8,2.9,0C84.9,20.5,85.2,19.8,85.1,19.1 M80.6,15v-0.7H76v7.3h0.8v-3.2
		H80v-0.7h-3.2V15H80.6z M72.8,17c-0.3-0.3-0.8-0.5-1.2-0.5c-0.6,0-1.1,0.2-1.4,0.7v-0.6h-0.7v5h0.7v-3.1c-0.1-0.7,0.4-1.3,1.1-1.3
		c0,0,0.1,0,0.1,0c0.3,0,0.7,0.1,0.9,0.4L72.8,17z M67.1,19.8c0,0.3-0.1,0.6-0.3,0.9c-0.3,0.3-0.7,0.4-1.1,0.3
		c-0.8,0-1.2-0.3-1.2-0.9s0.4-0.9,1.1-0.9h1.4V19.8z M67.9,21.6v-3.4c0-1.1-0.7-1.7-2-1.7c-0.7-0.1-1.4,0.2-1.8,0.7l0.5,0.5
		c0.3-0.4,0.8-0.6,1.3-0.6c0.9,0,1.3,0.4,1.3,1.1v0.5h-1.5c-1.1,0-1.7,0.6-1.7,1.5c0,0.4,0.1,0.7,0.4,1c0.4,0.4,0.9,0.5,1.4,0.5
		c0.5,0.1,1.1-0.1,1.5-0.5v0.5L67.9,21.6z M63.1,21.6V21h-0.4c-0.5,0-0.7-0.3-0.7-0.7v-3.1h1.1v-0.6H62V15h-0.7v1.6h-0.6v0.6h0.6
		v3.1c-0.1,0.7,0.4,1.3,1.1,1.3c0.1,0,0.1,0,0.2,0L63.1,21.6z M58.9,19.8c0,0.3-0.1,0.6-0.3,0.9c-0.3,0.3-0.7,0.4-1.1,0.3
		c-0.8,0-1.2-0.3-1.2-0.9s0.4-0.9,1.1-0.9h1.4L58.9,19.8z M59.6,21.6v-3.4c0-1.1-0.7-1.7-2-1.7c-0.7-0.1-1.4,0.2-1.8,0.7l0.5,0.5
		c0.3-0.4,0.8-0.6,1.3-0.6c0.9,0,1.3,0.4,1.3,1.1v0.5h-1.5c-1.1,0-1.7,0.6-1.7,1.5c0,0.4,0.1,0.7,0.4,1c0.4,0.4,0.9,0.5,1.4,0.5
		c0.5,0.1,1.1-0.1,1.5-0.5v0.5L59.6,21.6z M53.8,18c0.1,0.7,0,1.5-0.3,2.2l-0.9-0.9l-0.5,0.5l0.9,0.9c-0.3,0.2-0.7,0.4-1,0.3
		c-0.5,0-0.9-0.2-1.3-0.5c-0.5-0.5-0.5-1-0.5-2.5s0.1-2,0.5-2.5c0.7-0.7,1.8-0.7,2.5,0c0,0,0,0,0,0C53.7,16,53.7,16.4,53.8,18
		 M54.8,21.5L54,20.7c0.5-0.6,0.5-1.3,0.5-2.7c0-1.5,0-2.3-0.7-2.9c-1-1-2.7-1-3.7,0c-0.7,0.7-0.7,1.4-0.7,2.9s0,2.3,0.7,2.9
		c0.5,0.5,1.2,0.8,1.9,0.8c0.6,0,1.1-0.2,1.6-0.5l0.8,0.8L54.8,21.5z M46.2,17.2v-0.6h-1.1v-0.9c0-0.5,0.2-0.7,0.7-0.7h0.4v-0.6
		h-0.5c-0.7,0-1.2,0.5-1.3,1.2c0,0.1,0,0.1,0,0.2v1h-0.6v0.6h0.6v4.4h0.7v-4.5L46.2,17.2z M42.1,19.1c0.1,0.5-0.1,1.1-0.4,1.6
		c-0.2,0.2-0.6,0.4-0.9,0.4c-0.3,0-0.7-0.1-0.9-0.4c-0.5-1-0.5-2.1,0-3.1c0.2-0.2,0.6-0.4,0.9-0.4c0.3,0,0.7,0.1,0.9,0.4
		C42.1,18,42.2,18.5,42.1,19.1 M42.9,19.1c0.1-0.7-0.1-1.4-0.6-2c-0.8-0.8-2.1-0.8-2.9,0c-0.8,1.2-0.8,2.8,0,4
		c0.8,0.8,2.1,0.8,2.9,0C42.7,20.5,42.9,19.8,42.9,19.1 M35.9,17c-0.3-0.3-0.8-0.5-1.2-0.5c-0.6,0-1.1,0.2-1.4,0.7v-0.6h-0.7v5h0.7
		v-3.1c-0.1-0.7,0.4-1.3,1.1-1.4c0,0,0.1,0,0.1,0c0.3,0,0.7,0.1,0.9,0.4L35.9,17z M30.5,18.7h-2.7c0-0.3,0-0.6,0.2-0.8
		c0.3-0.6,1.1-0.9,1.7-0.6c0.3,0.1,0.5,0.4,0.6,0.6C30.4,18.2,30.5,18.5,30.5,18.7 M31.2,19.3V19c0-1.5-0.8-2.4-2.1-2.4
		c-1.3,0-2.1,0.9-2.1,2.6c0,1.8,0.9,2.6,2.2,2.6c0.7,0,1.4-0.3,1.8-0.8l-0.5-0.4c-0.3,0.4-0.8,0.6-1.3,0.6c-1,0-1.5-0.6-1.5-1.7
		L31.2,19.3z M25.3,19.1c0,1-0.2,1.9-1.3,1.9s-1.3-0.9-1.3-1.9s0.2-1.9,1.3-1.9S25.3,18.1,25.3,19.1 M26,19.1
		c0.1-0.8-0.1-1.5-0.6-2.1c-0.3-0.3-0.8-0.5-1.2-0.4c-0.6,0-1.1,0.2-1.4,0.6v-2.8H22v7.3h0.7V21c0.3,0.5,0.9,0.7,1.4,0.7
		c0.5,0,0.9-0.1,1.2-0.4C25.8,20.6,26.1,19.9,26,19.1 M20.4,21.6v-3.2c0-0.5-0.2-1-0.5-1.4c-0.4-0.3-0.8-0.5-1.3-0.5
		c-0.7,0-1.3,0.3-1.7,0.8c-0.3-0.6-0.9-0.9-1.5-0.8c-0.5,0-1.1,0.2-1.4,0.6v-0.6h-0.7v5H14v-3.1c-0.1-0.7,0.4-1.2,1-1.3
		c0.1,0,0.2,0,0.2,0c0.6,0,1.2,0.4,1.2,1.1c0,0.1,0,0.2,0,0.3v3.1h0.7v-3.2c0-0.7,0.6-1.2,1.3-1.2s1.2,0.6,1.2,1.3v3.1L20.4,21.6z
		 M11.1,18.7H8.5c0-0.3,0-0.6,0.2-0.8c0.3-0.6,1.1-0.9,1.7-0.6c0.3,0.1,0.5,0.4,0.6,0.6C11.1,18.1,11.1,18.4,11.1,18.7 M11.9,19.3
		v-0.3c0-1.5-0.8-2.4-2.1-2.4c-1.3,0-2.1,0.9-2.1,2.6c0,1.8,0.9,2.6,2.2,2.6c0.7,0,1.4-0.3,1.8-0.8l-0.5-0.4
		c-0.3,0.4-0.8,0.6-1.3,0.6c-1,0-1.5-0.6-1.5-1.7L11.9,19.3z M6.2,21.6v-7.3H5.5l-2.3,5.2l-2.4-5.2H0v7.3h0.8v-5.5l2,4.4h0.7l2-4.4
		v5.5H6.2z"/>
	<g transform="translate(0.107)">
		<rect id="Rectangle_426" x="20.7" y="0.9" class="st0" width="0.9" height="0.9"/>
		<rect id="Rectangle_427" x="22.1" y="0.9" class="st0" width="0.9" height="0.9"/>
		<rect id="Rectangle_428" x="28.6" y="0.9" class="st0" width="0.9" height="0.9"/>
		<rect id="Rectangle_429" x="108.9" y="0.9" class="st0" width="0.9" height="0.9"/>
		<rect id="Rectangle_430" x="91" y="0.9" class="st0" width="0.9" height="0.9"/>
		<rect id="Rectangle_431" x="80.9" y="10" class="st0" width="0.9" height="0.9"/>
		<rect id="Rectangle_432" x="30" y="0.9" class="st0" width="0.9" height="0.9"/>
		<path id="Path_854" class="st0" d="M62.3,1.5h-0.7c-0.3,0-0.5-0.3-0.5-0.5c0,0,0,0,0,0c0-0.2,0.2-0.4,0.3-0.4c0,0,0,0,0,0
			c0.2,0,0.4,0.1,0.5,0.2l0.3-0.2c-0.2-0.2-0.5-0.3-0.8-0.3c-0.3,0-0.6,0.2-0.7,0.4c-0.1,0.3-0.1,0.6,0.1,0.8h-0.5v0.4h1.9L62.3,1.5
			z"/>
		<path id="Path_855" class="st0" d="M71.4,2.8c-1.3,0-2,0.9-2,2.2v0.4c0,0.5-0.1,1.1-0.9,1.1h-5.2V4.9c0-1.7-1-2.1-2-2.1
			c-1.1,0-2,0.9-2,1.9c0,0.1,0,0.1,0,0.2c-0.1,1.5,0.7,2.4,2.1,2.4h1.1c0,0.3-0.1,0.5-0.3,0.7c-0.3,0.3-0.7,0.5-1.1,0.4
			c-0.3,0-0.6,0-0.8-0.2L60,8.8c0.4,0.2,0.8,0.3,1.2,0.3c0.6,0,1.2-0.2,1.6-0.6c0.3-0.3,0.5-0.8,0.5-1.2h5.5
			c0.4-0.1,0.8-0.3,1.1-0.7c0.4,0.5,0.9,0.7,1.5,0.7c1.2,0,2-0.7,2-2.3c0.2-1.1-0.6-2.1-1.7-2.2C71.6,2.8,71.5,2.8,71.4,2.8z
			 M62.6,6.6h-1.1c-1.1,0-1.4-0.7-1.4-1.7c0-1.2,0.6-1.5,1.2-1.5s1.2,0.3,1.2,1.5L62.6,6.6z M71.4,6.6c-0.9,0-1.2-0.7-1.2-1.6
			c0-1.3,0.6-1.6,1.2-1.6s1.2,0.3,1.2,1.6C72.6,5.9,72.3,6.6,71.4,6.6L71.4,6.6z"/>
		<path id="Path_856" class="st0" d="M91.4,2.8c-1.1,0-2,0.9-2,2c0,0.1,0,0.1,0,0.2c0,0.6,0.1,1.1,0.5,1.6h-5.3
			c-0.8-0.1-1.6-0.5-2.2-1l-0.4,0.6c0.3,0.2,0.7,0.4,0.8,0.5l0,0c0.4,0.3,0.5,0.5,0.5,0.6c0,1-1.7,1.3-2.8,1.3c-2,0-2.8-0.8-2.8-1.9
			c0-0.6,0.2-1.1,0.5-1.6l-0.7-0.4c-0.4,0.6-0.6,1.3-0.6,2c0,1,0.5,2.5,3.6,2.5c2.1,0,3.3-0.8,3.4-1.7c0-0.1,0-0.3-0.1-0.4
			c0.2,0,0.3,0.1,0.5,0.1h7.1c1.2,0,1.9-1,1.9-2.3C93.4,3.3,92.3,2.8,91.4,2.8z M91.4,6.6c-0.9,0-1.2-0.7-1.2-1.6
			c0-1.2,0.6-1.5,1.2-1.5c0.6,0,1.2,0.4,1.2,1.5C92.6,6.1,92.2,6.6,91.4,6.6L91.4,6.6z"/>
		<rect id="Rectangle_433" x="79.5" y="10" class="st0" width="0.9" height="0.9"/>
		<path id="Path_857" class="st0" d="M21.9,2.8c-1.1,0-2,0.9-2,2c0,0.1,0,0.1,0,0.2c0,0.6,0.1,1.1,0.5,1.6H15
			c-0.5,0.1-1-0.3-1.1-0.8c0-0.1,0-0.1,0-0.2V4.6c0-1.8-1.8-2.1-3-1.7c-0.6,0.2-1.2,0.5-1.7,0.9V0H8.3v6.6h-5
			c-0.5,0.1-1-0.3-1.1-0.9c0,0,0-0.1,0-0.1V3.1H1.4v4.2c0,0.3,0,1.2-0.9,1.2c-0.1,0-0.3,0-0.4,0L0,9.1c0.2,0,0.4,0,0.5,0
			c1.4,0,1.7-0.9,1.7-1.9V7c0.3,0.2,0.7,0.3,1.1,0.3h8.9c0.6,0.1,1.1-0.2,1.4-0.6c0.3,0.4,0.8,0.7,1.4,0.6h7c1.2,0,1.9-1,1.9-2.3
			C23.8,3.2,22.8,2.8,21.9,2.8z M13.1,5.4c0,1-0.5,1.2-1.3,1.2H9.1v-2c0.5-0.5,1.1-0.8,1.8-1c1.1-0.3,2.2-0.1,2.2,1.3L13.1,5.4z
			 M21.9,6.6c-0.9,0-1.2-0.7-1.2-1.6c0-1.2,0.6-1.5,1.2-1.5c0.6,0,1.2,0.4,1.2,1.5C23.1,6.1,22.6,6.6,21.9,6.6z"/>
		<path id="Path_858" class="st0" d="M119.6,5.9c-0.3-0.6-0.3-1.4,0.1-2c0.3-0.3,0.7-0.5,1.1-0.4c0.3,0,0.5,0,0.7,0.1
			c0.2,0.1,0.4,0.3,0.6,0.4l0.5-0.4c-0.2-0.2-0.5-0.4-0.8-0.6c-0.3-0.1-0.7-0.2-1-0.2c-0.6-0.1-1.2,0.2-1.6,0.6
			c-0.7,1-0.6,2.3,0.1,3.2h-5.6c-0.5,0.1-1-0.3-1.1-0.8c0-0.1,0-0.1,0-0.2V4.6c0-1.8-1.8-2.1-3-1.7c-0.6,0.2-1.2,0.5-1.7,0.9V3.1
			H107v3.5h-5.9V4.9c0-1.7-1-2.1-2-2.1c-1.1,0-2,0.9-2,1.9c0,0.1,0,0.1,0,0.2c-0.1,1.5,0.7,2.4,2.1,2.4h1.1c0,0.3-0.1,0.5-0.3,0.7
			c-0.3,0.3-0.7,0.5-1.1,0.4c-0.3,0-0.6,0-0.8-0.2l-0.4,0.6C98.2,9,98.6,9.1,99,9.1c0.6,0,1.2-0.2,1.6-0.6c0.3-0.3,0.5-0.8,0.5-1.2
			h9.7c0.6,0.1,1.1-0.2,1.5-0.6c0.3,0.4,0.8,0.7,1.4,0.6h9V6.6h-1.9C120.3,6.6,119.8,6.3,119.6,5.9z M100.4,6.6h-1.1
			c-1.1,0-1.4-0.7-1.4-1.7c0-1.2,0.6-1.5,1.2-1.5s1.2,0.3,1.2,1.5L100.4,6.6z M111.8,5.4c0,1-0.5,1.2-1.3,1.2h-2.8v-2
			c0.5-0.5,1.1-0.8,1.8-1c1.1-0.3,2.2-0.1,2.2,1.3L111.8,5.4z"/>
		<path id="Path_859" class="st0" d="M57.3,6.6h-1c-0.2,0-1.1,0-1.1-1.2v-2h-0.8v2.1c0,0.7-0.3,1.1-1,1.1c-0.5,0.1-1-0.3-1.1-0.8
			c0-0.1,0-0.1,0-0.2v-2h-0.8v1.8c0,1.1-0.8,1.1-1.2,1.1h-4.5c-0.5,0.1-1-0.3-1.1-0.8c0-0.1,0-0.1,0-0.2V3.1H44v2.4
			c0,0.7-0.3,1.1-1,1.1c-0.5,0.1-1-0.3-1.1-0.8c0-0.1,0-0.1,0-0.2V3.3h-0.8v2.1c0,0.7-0.3,1.1-1,1.1c-0.5,0.1-1-0.3-1.1-0.8
			c0-0.1,0-0.1,0-0.2v-2h-0.8v1.8c0,1.1-0.8,1.1-1.2,1.1h-4.7c-0.5,0-0.8-0.3-0.8-0.9V2.8h-2c-1.1,0-2,0.8-2,2.4
			c-0.1,1.1,0.6,2,1.7,2.1c0.1,0,0.2,0,0.3,0c0.6,0,1.2-0.3,1.5-0.8c0.2,0.5,0.7,0.8,1.2,0.8h4.9c0.6,0,1.2-0.2,1.5-0.7
			c0.3,0.5,0.8,0.8,1.4,0.8c0.6,0.1,1.2-0.2,1.5-0.7c0.3,0.5,0.8,0.8,1.4,0.7c0.6,0.1,1.2-0.2,1.5-0.7c0.3,0.5,0.8,0.7,1.4,0.7h4.7
			c0.6,0,1.2-0.2,1.5-0.7c0.3,0.5,0.8,0.8,1.4,0.8c0.6,0.1,1.2-0.2,1.5-0.7c0.3,0.5,0.8,0.8,1.4,0.7h1.8V3.1h-0.8L57.3,6.6z
			 M30.7,5.1c0.1,0.7-0.4,1.4-1.2,1.5c0,0,0,0-0.1,0c-0.6,0-1.2-0.3-1.2-1.5c0-0.9,0.3-1.7,1.2-1.7h1.2V5.1z"/>
	</g>
</g>
<g>
	<rect y="124.3" class="st1" width="144.2" height="0.5"/>
	<g transform="translate(0.126 21.171)">
		<path id="Path_803" class="st1" d="M1.4,91.1c1.7-1.5,4.3-1.6,6,0c0.9,0.9,1.4,2.1,1.4,3.4c0,1-0.3,2-0.9,2.9
			c-0.6,0.9-1.6,1.4-2.6,1.6c0.5,0.7,1.1,1.3,1.9,1.6c0.6,0.2,1.1,0.3,1.7,0.4v0.2H8.3c-0.6,0-1.3-0.1-1.9-0.2
			c-0.5-0.1-1-0.3-1.5-0.5c-0.5-0.2-0.9-0.6-1.2-1c-0.2-0.2-0.4-0.5-0.6-0.7l-0.2-0.1c-0.6-0.3-1.2-0.7-1.7-1.2
			C-0.4,95.7-0.3,92.9,1.4,91.1L1.4,91.1z M2.4,97.5c0.5,0.6,1.2,1,2,1c0.8,0,1.5-0.4,2-1c1.1-1.9,1.1-4.3,0-6.2c-0.5-0.6-1.2-1-2-1
			c-0.8,0-1.5,0.4-2,1C1.3,93.3,1.3,95.6,2.4,97.5L2.4,97.5z"/>
		<path id="Path_804" class="st1" d="M10.6,96c0.8-0.4,1.5-0.8,2.4-1.1v-0.6c0-0.3,0-0.6-0.1-0.9c-0.2-0.3-0.5-0.5-0.9-0.4
			c-0.2,0-0.4,0.1-0.6,0.2c-0.2,0.1-0.3,0.3-0.3,0.5c0,0.1,0,0.2,0,0.3c0,0.1,0,0.2,0,0.2c0,0.2-0.1,0.4-0.2,0.5
			c-0.1,0.1-0.2,0.1-0.3,0.1c-0.2,0-0.3-0.1-0.4-0.2c-0.1-0.1-0.2-0.3-0.2-0.4c0-0.4,0.2-0.7,0.6-1c0.5-0.4,1-0.5,1.6-0.5
			c0.7-0.1,1.3,0.2,1.7,0.8c0.2,0.4,0.3,0.9,0.2,1.3v2.6c0,0.2,0,0.3,0.1,0.5c0,0.2,0.2,0.3,0.3,0.2c0.1,0,0.2,0,0.2,0
			c0.1-0.1,0.2-0.1,0.3-0.2v0.3c-0.1,0.2-0.3,0.3-0.5,0.4c-0.2,0.2-0.5,0.2-0.7,0.2c-0.2,0-0.5-0.1-0.6-0.3C13.1,98.4,13,98.2,13,98
			c-0.3,0.2-0.5,0.4-0.8,0.6c-0.3,0.2-0.7,0.3-1.1,0.4c-0.4,0-0.7-0.1-1-0.4c-0.3-0.3-0.4-0.6-0.4-1C9.7,96.9,10,96.3,10.6,96z
			 M12.9,95.3c-0.4,0.1-0.8,0.3-1.2,0.5c-0.5,0.2-0.9,0.7-0.9,1.3c0,0.3,0.1,0.7,0.4,0.9c0.2,0.1,0.4,0.2,0.6,0.2
			c0.3,0,0.6-0.1,0.8-0.2c0.2-0.1,0.4-0.4,0.4-0.6L12.9,95.3z"/>
		<path id="Path_805" class="st1" d="M18.4,92.9v0.4h-1.3l0,3.7c0,0.2,0,0.5,0.1,0.7c0.1,0.3,0.3,0.5,0.6,0.4c0.1,0,0.3,0,0.4-0.1
			c0.1-0.1,0.3-0.2,0.4-0.4l0.2,0.1l-0.1,0.2c-0.2,0.3-0.4,0.5-0.7,0.6c-0.2,0.1-0.5,0.2-0.7,0.2c-0.5,0-0.9-0.2-1-0.7
			C16,98,16,97.6,16,97.3v-3.9h-0.7c0,0,0,0,0,0c0,0,0,0,0,0c0,0,0-0.1,0-0.1c0,0,0.1-0.1,0.2-0.2c0.2-0.2,0.4-0.4,0.6-0.6
			c0.1-0.2,0.4-0.6,0.9-1.2c0.1,0,0.1,0,0.1,0s0,0,0,0.1v1.6L18.4,92.9z"/>
		<path id="Path_806" class="st1" d="M20.1,96c0.8-0.4,1.5-0.8,2.4-1.1v-0.6c0-0.3,0-0.6-0.1-0.9c-0.2-0.3-0.5-0.5-0.9-0.4
			c-0.2,0-0.4,0.1-0.6,0.2c-0.2,0.1-0.3,0.3-0.3,0.5c0,0.1,0,0.2,0,0.3c0,0.1,0,0.2,0,0.2c0,0.2-0.1,0.4-0.2,0.5
			c-0.1,0.1-0.2,0.1-0.3,0.1c-0.2,0-0.3-0.1-0.4-0.2c-0.1-0.1-0.2-0.3-0.2-0.4c0-0.4,0.2-0.7,0.6-1c0.5-0.4,1-0.5,1.6-0.5
			c0.7-0.1,1.3,0.2,1.7,0.8c0.2,0.4,0.3,0.9,0.2,1.3v2.6c0,0.2,0,0.3,0.1,0.5c0,0.2,0.2,0.3,0.4,0.2c0.1,0,0.2,0,0.2,0
			c0.1-0.1,0.2-0.1,0.3-0.2v0.3c-0.1,0.2-0.3,0.3-0.4,0.4c-0.2,0.2-0.5,0.2-0.7,0.2c-0.2,0-0.5-0.1-0.6-0.3
			c-0.1-0.2-0.2-0.4-0.2-0.7c-0.3,0.2-0.5,0.4-0.8,0.6c-0.3,0.2-0.7,0.3-1.1,0.4c-0.4,0-0.7-0.1-1-0.4c-0.3-0.3-0.4-0.6-0.4-1
			C19.2,96.9,19.6,96.3,20.1,96z M22.5,95.3c-0.4,0.1-0.8,0.3-1.2,0.5c-0.5,0.2-0.9,0.7-0.9,1.3c0,0.3,0.1,0.7,0.4,0.9
			c0.2,0.1,0.4,0.2,0.6,0.2c0.3,0,0.6-0.1,0.8-0.2c0.2-0.1,0.4-0.4,0.4-0.6L22.5,95.3z"/>
		<path id="Path_807" class="st1" d="M24.7,98.6c0.3,0,0.6-0.1,0.8-0.2c0.2-0.2,0.2-0.4,0.2-0.7v-2.9c0-0.3,0-0.6-0.1-0.9
			c-0.1-0.2-0.2-0.3-0.4-0.3c-0.1,0-0.1,0-0.2,0c-0.1,0-0.1,0-0.2,0v-0.2c0.3-0.1,0.5-0.2,0.8-0.3s0.4-0.2,0.5-0.2
			c0.2-0.1,0.4-0.2,0.7-0.3c0,0,0,0,0.1,0c0,0,0,0.1,0,0.1V94c0.2-0.3,0.5-0.6,0.8-0.9c0.2-0.2,0.5-0.3,0.8-0.3
			c0.2,0,0.4,0.1,0.5,0.2c0.1,0.1,0.2,0.3,0.2,0.5c0,0.2-0.1,0.3-0.2,0.5c-0.1,0.1-0.2,0.2-0.4,0.2c-0.2,0-0.4-0.1-0.5-0.2
			c-0.1-0.1-0.2-0.2-0.4-0.2c-0.1,0-0.3,0.1-0.5,0.4c-0.2,0.2-0.3,0.5-0.3,0.8v2.9c0,0.3,0.1,0.6,0.3,0.8c0.3,0.2,0.6,0.2,0.9,0.2
			v0.2h-3.2L24.7,98.6z"/>
		<path id="Path_808" class="st1" d="M32.5,98.6c0.3,0,0.7-0.1,1-0.3c0.2-0.1,0.2-0.4,0.2-0.9v-5.9c0-0.3,0-0.6-0.2-0.9
			c-0.3-0.2-0.6-0.3-1-0.3v-0.3h3.7v0.3c-0.3,0-0.7,0.1-1,0.2c-0.2,0.2-0.3,0.5-0.2,0.8v6.4c0,0.1,0,0.2,0.1,0.4
			c0.1,0.1,0.2,0.2,0.3,0.2c0.1,0,0.2,0,0.3,0c0.1,0,0.3,0,0.6,0c0.8,0.1,1.6,0,2.4-0.3c0.6-0.4,1-0.9,1.2-1.5h0.3l-0.7,2.3h-7.1
			V98.6z"/>
		<path id="Path_809" class="st1" d="M45,93.4c0.5,0.5,0.7,1.1,0.7,1.8h-4.1c0,0.8,0.2,1.6,0.7,2.2c0.4,0.4,0.9,0.7,1.5,0.7
			c0.4,0,0.8-0.1,1.1-0.4c0.3-0.3,0.6-0.6,0.9-1l0.2,0.1c-0.2,0.6-0.5,1.1-1,1.5c-0.5,0.5-1.1,0.7-1.8,0.7c-0.7,0-1.4-0.3-1.9-0.9
			c-0.4-0.6-0.7-1.4-0.7-2.1c0-0.8,0.3-1.6,0.8-2.2c0.5-0.6,1.2-1,2-0.9C44,92.8,44.6,93,45,93.4z M41.9,93.9
			c-0.2,0.3-0.2,0.6-0.3,0.9h2.7c0-0.3-0.1-0.7-0.2-1c-0.2-0.4-0.6-0.6-1.1-0.6C42.6,93.2,42.2,93.5,41.9,93.9L41.9,93.9z"/>
		<path id="Path_810" class="st1" d="M47.7,96c0.8-0.4,1.5-0.8,2.4-1.1v-0.6c0-0.3,0-0.6-0.1-0.9C49.7,93.2,49.4,93,49,93
			c-0.2,0-0.4,0.1-0.6,0.2c-0.2,0.1-0.3,0.3-0.3,0.5c0,0.1,0,0.2,0,0.3c0,0.1,0,0.2,0,0.2c0,0.2-0.1,0.4-0.2,0.5
			c-0.1,0.1-0.2,0.1-0.3,0.1c-0.2,0-0.3-0.1-0.5-0.2c-0.1-0.1-0.2-0.3-0.2-0.4c0-0.4,0.2-0.7,0.6-1c0.5-0.4,1-0.5,1.6-0.5
			c0.7-0.1,1.3,0.2,1.7,0.8c0.2,0.4,0.3,0.9,0.2,1.3v2.6c0,0.2,0,0.3,0.1,0.5c0,0.2,0.2,0.3,0.4,0.2c0.1,0,0.2,0,0.2,0
			c0.1-0.1,0.2-0.1,0.3-0.2v0.3c-0.1,0.2-0.3,0.3-0.4,0.4c-0.2,0.2-0.5,0.2-0.7,0.2c-0.2,0-0.5-0.1-0.6-0.3
			c-0.1-0.2-0.2-0.4-0.2-0.7c-0.3,0.2-0.5,0.4-0.8,0.6c-0.3,0.2-0.7,0.3-1.1,0.4c-0.4,0-0.7-0.1-1-0.4c-0.3-0.3-0.4-0.6-0.4-1
			C46.8,96.9,47.1,96.3,47.7,96z M50,95.3c-0.4,0.1-0.8,0.3-1.2,0.5c-0.5,0.2-0.9,0.7-0.9,1.3c0,0.3,0.1,0.7,0.4,0.9
			c0.2,0.1,0.4,0.2,0.6,0.2c0.3,0,0.6-0.1,0.8-0.2c0.2-0.1,0.4-0.3,0.4-0.6L50,95.3z"/>
		<path id="Path_811" class="st1" d="M56.1,93c0.2,0.1,0.3,0.2,0.5,0.4v-2.1c0-0.2,0-0.4-0.1-0.6c-0.1-0.1-0.2-0.1-0.4-0.1
			c0,0-0.1,0-0.1,0s-0.1,0-0.3,0v-0.2l0.5-0.1c0.2-0.1,0.4-0.1,0.6-0.2s0.4-0.1,0.5-0.2c0.1,0,0.2-0.1,0.3-0.1l0,0l0,0.7
			c0,0.2,0,0.5,0,0.8s0,0.5,0,0.8l0,5.3c0,0.2,0,0.4,0.1,0.6c0.1,0.1,0.3,0.2,0.6,0.2c0,0,0.1,0,0.1,0c0,0,0.1,0,0.1,0v0.2
			c0,0-0.3,0.1-1,0.3l-1,0.4l0-0.1v-0.8c-0.2,0.2-0.4,0.4-0.6,0.6c-0.3,0.2-0.7,0.3-1.1,0.3c-0.7,0-1.3-0.3-1.8-0.9
			c-0.4-0.6-0.7-1.3-0.7-2c0-0.9,0.3-1.7,0.8-2.4c0.5-0.6,1.2-1,2-1C55.6,92.7,55.9,92.8,56.1,93z M56.3,98c0.2-0.1,0.3-0.3,0.3-0.6
			v-2.8c0-0.4-0.1-0.9-0.4-1.2c-0.2-0.2-0.5-0.3-0.9-0.3c-0.5,0-1,0.3-1.3,0.7c-0.3,0.5-0.5,1.1-0.4,1.8c0,0.6,0.1,1.3,0.5,1.8
			c0.3,0.5,0.8,0.8,1.4,0.8C55.8,98.3,56.1,98.2,56.3,98L56.3,98z"/>
		<path id="Path_812" class="st1" d="M63.4,93.4c0.5,0.5,0.7,1.1,0.7,1.8H60c0,0.8,0.2,1.6,0.7,2.2c0.4,0.4,0.9,0.7,1.4,0.7
			c0.4,0,0.8-0.1,1.1-0.4c0.3-0.3,0.6-0.6,0.9-1l0.2,0.1c-0.2,0.6-0.5,1.1-1,1.5c-0.5,0.5-1.1,0.7-1.8,0.7c-0.7,0-1.4-0.3-1.9-0.9
			C59.2,97.5,59,96.7,59,96c0-0.8,0.3-1.6,0.8-2.2c0.5-0.6,1.2-1,2-0.9C62.4,92.8,63,93,63.4,93.4z M60.3,93.9
			c-0.1,0.3-0.2,0.6-0.3,0.9h2.7c0-0.3-0.1-0.7-0.2-1c-0.2-0.4-0.6-0.6-1-0.6C60.9,93.2,60.5,93.5,60.3,93.9L60.3,93.9z"/>
		<path id="Path_813" class="st1" d="M64.7,98.6c0.3,0,0.6-0.1,0.8-0.2c0.2-0.2,0.2-0.4,0.2-0.7v-2.9c0-0.3,0-0.6-0.1-0.9
			c-0.1-0.2-0.2-0.3-0.4-0.3c-0.1,0-0.1,0-0.2,0c-0.1,0-0.1,0-0.2,0v-0.2c0.2-0.1,0.5-0.2,0.8-0.3s0.4-0.2,0.5-0.2
			c0.2-0.1,0.4-0.2,0.7-0.3c0,0,0.1,0,0.1,0c0,0,0,0.1,0,0.1V94c0.2-0.3,0.5-0.6,0.8-0.9c0.2-0.2,0.5-0.3,0.8-0.3
			c0.2,0,0.4,0.1,0.5,0.2c0.3,0.3,0.3,0.7,0,0.9c-0.1,0.1-0.2,0.2-0.4,0.2c-0.2,0-0.4-0.1-0.5-0.2c-0.1-0.1-0.2-0.2-0.4-0.2
			c-0.1,0-0.3,0.1-0.5,0.4c-0.2,0.2-0.3,0.5-0.3,0.8v2.9c0,0.3,0.1,0.6,0.3,0.8c0.3,0.2,0.6,0.2,0.9,0.2v0.2h-3.2L64.7,98.6z"/>
		<path id="Path_814" class="st1" d="M69.7,96.8h0.2c0.1,0.4,0.2,0.8,0.4,1.1c0.3,0.5,0.8,0.8,1.3,0.7c0.3,0,0.5-0.1,0.8-0.3
			c0.2-0.2,0.3-0.4,0.3-0.7c0-0.2-0.1-0.4-0.2-0.5c-0.1-0.2-0.3-0.4-0.6-0.5l-0.7-0.4c-0.4-0.2-0.8-0.5-1.2-0.9
			c-0.5-0.7-0.5-1.6,0.1-2.2c0.4-0.3,0.8-0.5,1.3-0.5c0.3,0,0.5,0,0.8,0.1c0.1,0.1,0.3,0.1,0.5,0.1c0.1,0,0.1,0,0.2,0
			c0,0,0.1-0.1,0.1-0.1h0.2l0,1.8H73c-0.1-0.3-0.2-0.7-0.4-1C72.4,93.3,72,93,71.5,93c-0.3,0-0.5,0.1-0.7,0.3
			c-0.2,0.2-0.3,0.4-0.3,0.7c0,0.4,0.3,0.8,0.9,1.1l0.9,0.5c0.9,0.5,1.4,1.1,1.4,1.7c0,0.5-0.2,0.9-0.6,1.2
			c-0.4,0.3-0.9,0.5-1.5,0.5c-0.3,0-0.6,0-0.9-0.1c-0.2-0.1-0.4-0.1-0.6-0.1c-0.1,0-0.1,0-0.1,0.1c0,0-0.1,0.1-0.1,0.1h-0.2
			L69.7,96.8z"/>
		<path id="Path_815" class="st1" d="M74.3,98.7c0.3,0,0.5-0.1,0.7-0.3c0.1-0.3,0.2-0.6,0.2-0.9v-6.2c0-0.2,0-0.4-0.1-0.5
			c-0.1-0.1-0.2-0.2-0.5-0.2c0,0-0.1,0-0.1,0c-0.1,0-0.1,0-0.2,0v-0.2c0.2-0.1,0.4-0.1,0.7-0.2s0.5-0.1,0.6-0.2l0.6-0.2l0,0v4
			c0.2-0.3,0.5-0.5,0.7-0.7c0.4-0.3,0.8-0.4,1.2-0.4c0.6-0.1,1.2,0.3,1.4,0.9c0.2,0.4,0.2,0.8,0.2,1.2v2.6c0,0.3,0,0.6,0.2,0.9
			c0.2,0.2,0.4,0.3,0.6,0.3v0.2h-2.8v-0.2c0.3,0,0.5-0.1,0.7-0.3c0.1-0.3,0.2-0.6,0.2-0.9v-2.6c0-0.3-0.1-0.7-0.2-1
			c-0.2-0.3-0.5-0.4-0.8-0.4c-0.4,0-0.7,0.1-1,0.4c-0.3,0.2-0.5,0.4-0.5,0.5v3.2c0,0.3,0,0.6,0.2,0.9c0.2,0.2,0.4,0.2,0.7,0.3v0.2
			h-2.8L74.3,98.7z"/>
		<path id="Path_816" class="st1" d="M81,98.7c0.3,0,0.6-0.1,0.9-0.2c0.1-0.1,0.2-0.4,0.2-0.9v-3.1c0-0.2,0-0.4-0.1-0.6
			c-0.1-0.2-0.2-0.3-0.4-0.3c0,0-0.1,0-0.1,0c0,0-0.2,0-0.4,0.1v-0.2l0.3-0.1c0.8-0.2,1.3-0.4,1.6-0.5c0.1,0,0.2-0.1,0.2-0.1
			c0,0,0,0.1,0,0.1v4.6c0,0.3,0,0.6,0.2,0.9c0.2,0.2,0.5,0.2,0.8,0.2v0.2H81L81,98.7z M82.1,90c0.3-0.3,0.7-0.3,0.9,0c0,0,0,0,0,0
			c0.3,0.3,0.3,0.7,0,0.9c0,0,0,0,0,0c-0.3,0.3-0.7,0.3-0.9,0C81.8,90.7,81.8,90.3,82.1,90z"/>
		<path id="Path_817" class="st1" d="M84.5,101.5c0.3,0,0.6-0.1,0.8-0.3c0.1-0.2,0.2-0.5,0.2-0.7v-6.2c0-0.2,0-0.4-0.1-0.6
			c-0.1-0.1-0.3-0.2-0.4-0.1c0,0-0.1,0-0.1,0s-0.1,0-0.2,0v-0.2l0.6-0.2c0,0,0.4-0.2,1.3-0.4c0,0,0,0,0,0c0,0,0,0,0,0.1v0.9
			c0.2-0.2,0.5-0.5,0.8-0.6c0.4-0.2,0.8-0.4,1.2-0.4c0.6,0,1.2,0.3,1.5,0.8c0.5,0.6,0.7,1.3,0.6,2.1c0,0.8-0.3,1.7-0.8,2.3
			c-0.4,0.7-1.2,1-2,1.1c-0.2,0-0.4,0-0.6-0.1c-0.3-0.1-0.6-0.3-0.8-0.5v2.1c0,0.4,0.1,0.7,0.2,0.8c0.3,0.1,0.6,0.2,0.9,0.2v0.2
			h-3.2V101.5z M87.1,98.3c0.2,0.1,0.5,0.2,0.8,0.2c0.5,0,0.9-0.3,1.2-0.7c0.4-0.6,0.5-1.2,0.5-1.9c0-0.6-0.1-1.3-0.5-1.8
			c-0.3-0.4-0.7-0.6-1.2-0.6c-0.3,0-0.6,0.1-0.9,0.3c-0.3,0.2-0.4,0.4-0.4,0.6v3.2C86.7,97.9,86.8,98.1,87.1,98.3L87.1,98.3z"/>
		<path id="Path_818" class="st1" d="M93.9,98.8v-0.3c0.3,0,0.6-0.1,0.8-0.4c0.4-0.6,0.6-1.2,0.9-1.8l2.7-6.5h0.3l3.3,7.5
			c0.1,0.3,0.3,0.7,0.5,0.9c0.2,0.1,0.4,0.2,0.7,0.2v0.3h-3.4v-0.3c0.3,0,0.5-0.1,0.7-0.1c0.1-0.1,0.2-0.2,0.2-0.4
			c0-0.1,0-0.2-0.1-0.3c0-0.2-0.1-0.3-0.2-0.5L99.8,96h-3.5c-0.4,0.9-0.6,1.4-0.6,1.6c-0.1,0.1-0.1,0.3-0.1,0.5
			c0,0.2,0.1,0.4,0.3,0.5c0.2,0.1,0.4,0.1,0.6,0.1v0.3L93.9,98.8z M99.5,95.4L98,91.8l-1.5,3.7L99.5,95.4z"/>
		<path id="Path_819" class="st1" d="M107.9,93.2c0.3,0.2,0.6,0.5,0.6,0.9c0,0.1,0,0.3-0.1,0.4c-0.1,0.1-0.3,0.2-0.5,0.2
			c-0.1,0-0.3-0.1-0.4-0.2c-0.1-0.1-0.2-0.3-0.2-0.5l-0.1-0.3c0-0.2-0.1-0.4-0.3-0.5c-0.2-0.1-0.4-0.1-0.6-0.1c-0.5,0-1,0.2-1.2,0.6
			c-0.4,0.5-0.5,1.1-0.5,1.7c0,0.6,0.2,1.2,0.6,1.8c0.3,0.5,0.9,0.8,1.5,0.8c0.4,0,0.9-0.2,1.2-0.4c0.3-0.2,0.5-0.5,0.7-0.8l0.2,0.1
			c-0.2,0.4-0.5,0.9-0.8,1.2c-0.4,0.5-1.1,0.9-1.8,0.9c-0.7,0-1.3-0.3-1.8-0.8c-0.5-0.6-0.8-1.4-0.8-2.2c0-0.8,0.3-1.7,0.8-2.3
			c0.5-0.6,1.3-1,2.1-1C107,92.7,107.5,92.9,107.9,93.2z"/>
		<path id="Path_820" class="st1" d="M110.5,96c0.8-0.4,1.5-0.8,2.4-1.1v-0.6c0-0.3,0-0.6-0.1-0.9c-0.2-0.3-0.5-0.5-0.9-0.4
			c-0.2,0-0.4,0.1-0.6,0.2c-0.2,0.1-0.3,0.3-0.3,0.5c0,0.1,0,0.2,0,0.3c0,0.1,0,0.2,0,0.2c0,0.2-0.1,0.4-0.2,0.5
			c-0.1,0.1-0.2,0.1-0.3,0.1c-0.2,0-0.3-0.1-0.4-0.2c-0.1-0.1-0.2-0.3-0.2-0.4c0-0.4,0.2-0.7,0.6-1c0.5-0.4,1-0.5,1.6-0.5
			c0.7-0.1,1.3,0.2,1.7,0.8c0.2,0.4,0.3,0.9,0.2,1.3v2.6c0,0.2,0,0.3,0.1,0.5c0,0.2,0.2,0.3,0.4,0.2c0.1,0,0.2,0,0.2,0
			c0.1-0.1,0.2-0.1,0.3-0.2v0.3c-0.1,0.2-0.3,0.3-0.4,0.4c-0.2,0.2-0.5,0.2-0.7,0.2c-0.2,0-0.5-0.1-0.6-0.3
			c-0.1-0.2-0.2-0.4-0.2-0.7c-0.3,0.2-0.5,0.4-0.8,0.6c-0.3,0.2-0.7,0.3-1.1,0.4c-0.8,0-1.4-0.6-1.4-1.4c0,0,0,0,0,0
			C109.6,96.9,109.9,96.3,110.5,96z M112.9,95.3c-0.4,0.1-0.8,0.3-1.2,0.5c-0.5,0.2-0.9,0.7-0.9,1.3c0,0.3,0.1,0.7,0.4,0.9
			c0.2,0.1,0.4,0.2,0.6,0.2c0.3,0,0.6-0.1,0.8-0.2c0.2-0.1,0.4-0.3,0.4-0.6L112.9,95.3z"/>
		<path id="Path_821" class="st1" d="M119,93c0.2,0.1,0.3,0.2,0.5,0.4v-2.1c0-0.2,0-0.4-0.1-0.6c-0.1-0.1-0.2-0.1-0.4-0.1
			c-0.1,0-0.1,0-0.1,0s-0.1,0-0.3,0v-0.2l0.5-0.1c0.2-0.1,0.4-0.1,0.6-0.2s0.4-0.1,0.5-0.2c0.1,0,0.2-0.1,0.3-0.1l0,0l0,0.7
			c0,0.2,0,0.5,0,0.8s0,0.5,0,0.8v5.3c0,0.2,0,0.4,0.1,0.6c0.1,0.1,0.3,0.2,0.6,0.2c0,0,0.1,0,0.1,0c0,0,0.1,0,0.1,0v0.2
			c0,0-0.3,0.1-1,0.3l-1,0.4l0-0.1v-0.8c-0.2,0.2-0.4,0.4-0.6,0.6c-0.3,0.2-0.7,0.3-1.1,0.3c-0.7,0-1.3-0.3-1.8-0.9
			c-0.5-0.6-0.7-1.2-0.7-2c0-0.9,0.3-1.7,0.8-2.4c0.5-0.6,1.2-1,2-1C118.4,92.7,118.7,92.8,119,93z M119.2,98
			c0.2-0.1,0.3-0.3,0.3-0.6v-2.8c0-0.4-0.1-0.9-0.4-1.2c-0.2-0.2-0.5-0.3-0.9-0.3c-0.5,0-1,0.3-1.3,0.7c-0.3,0.5-0.5,1.1-0.5,1.8
			c0,0.6,0.2,1.3,0.5,1.8c0.3,0.5,0.8,0.8,1.4,0.8C118.6,98.3,118.9,98.2,119.2,98L119.2,98z"/>
		<path id="Path_822" class="st1" d="M126.2,93.4c0.5,0.5,0.7,1.1,0.7,1.8h-4.1c0,0.8,0.2,1.6,0.7,2.2c0.4,0.4,0.9,0.7,1.5,0.7
			c0.4,0,0.8-0.1,1.1-0.4c0.3-0.3,0.6-0.6,0.9-1l0.2,0.1c-0.2,0.6-0.5,1.1-1,1.5c-0.5,0.5-1.1,0.7-1.8,0.7c-0.7,0-1.4-0.3-1.9-0.9
			c-0.4-0.6-0.7-1.4-0.7-2.1c0-0.8,0.3-1.6,0.8-2.2c0.5-0.6,1.2-1,2-0.9C125.2,92.8,125.8,93,126.2,93.4z M123.1,93.9
			c-0.2,0.3-0.3,0.6-0.3,0.9h2.7c0-0.3-0.1-0.7-0.2-1c-0.2-0.4-0.6-0.6-1.1-0.6C123.8,93.2,123.3,93.5,123.1,93.9L123.1,93.9z"/>
		<path id="Path_823" class="st1" d="M127.7,98.7c0.2,0,0.5-0.1,0.7-0.2c0.2-0.2,0.3-0.5,0.3-0.7v-3.3c0-0.2,0-0.4-0.1-0.6
			c-0.1-0.1-0.3-0.2-0.4-0.1c-0.1,0-0.1,0-0.2,0c-0.1,0-0.1,0-0.2,0v-0.2l0.5-0.2c0.2-0.1,0.4-0.2,0.8-0.3c0.4-0.1,0.6-0.2,0.6-0.2
			c0,0,0,0,0,0c0,0,0,0.1,0,0.1v0.9c0.3-0.3,0.7-0.6,1.1-0.8c0.3-0.1,0.6-0.2,0.9-0.2c0.4,0,0.8,0.2,1.1,0.5
			c0.2,0.2,0.3,0.4,0.3,0.7c0.3-0.3,0.5-0.5,0.8-0.7c0.4-0.3,0.8-0.4,1.3-0.4c0.6-0.1,1.2,0.3,1.4,0.8c0.2,0.5,0.2,1,0.2,1.5v2.7
			c0,0.2,0,0.4,0.2,0.6c0.2,0.1,0.5,0.2,0.7,0.2v0.2h-2.9v-0.2c0.3,0,0.5-0.1,0.7-0.2c0.1-0.2,0.2-0.5,0.2-0.7v-2.8
			c0-0.3,0-0.6-0.1-0.9c-0.2-0.4-0.5-0.6-0.9-0.5c-0.3,0-0.6,0.1-0.8,0.3c-0.2,0.2-0.4,0.3-0.6,0.5v3.3c0,0.3,0,0.5,0.2,0.8
			c0.2,0.2,0.5,0.3,0.8,0.3v0.2h-3v-0.2c0.3,0,0.6-0.1,0.8-0.3c0.1-0.3,0.2-0.7,0.2-1.1v-1.8c0-0.5,0-0.9-0.1-1.4
			c-0.1-0.4-0.5-0.7-0.9-0.6c-0.3,0-0.5,0.1-0.8,0.2c-0.3,0.1-0.5,0.3-0.7,0.6v3.5c0,0.2,0,0.5,0.2,0.6c0.2,0.1,0.5,0.2,0.7,0.2v0.2
			h-2.9L127.7,98.7z"/>
		<path id="Path_824" class="st1" d="M137.9,92.9h2.7v0.2c-0.2,0-0.3,0-0.5,0.1c-0.2,0.1-0.3,0.2-0.3,0.3c0,0.1,0,0.1,0,0.2
			c0,0.1,0.1,0.2,0.1,0.3l1.5,3.2l1.2-3.2c0,0,0-0.1,0.1-0.2c0-0.1,0-0.2,0-0.3c0-0.1,0-0.2-0.1-0.3c-0.1-0.1-0.2-0.1-0.3-0.1
			l-0.2,0v-0.2h1.8v0.2c-0.2,0-0.3,0.1-0.4,0.2c-0.1,0.1-0.2,0.3-0.2,0.4l-2,5.4c-0.2,0.7-0.6,1.4-1,2c-0.3,0.4-0.7,0.6-1.2,0.6
			c-0.2,0-0.5-0.1-0.7-0.2c-0.2-0.1-0.3-0.3-0.3-0.6c0-0.2,0.1-0.3,0.2-0.4c0.1-0.1,0.3-0.2,0.5-0.2c0.2,0,0.3,0.1,0.5,0.1
			c0.2,0.1,0.3,0.1,0.5,0.1c0.2,0,0.5-0.3,0.8-0.9c0.2-0.4,0.3-0.8,0.4-1.2c0,0,0-0.1,0-0.1c0-0.1,0-0.1-0.1-0.2l-2-4.4
			c-0.1-0.2-0.2-0.4-0.4-0.6c-0.1-0.1-0.3-0.2-0.5-0.2L137.9,92.9z"/>
	</g>
	<g>
		<path id="Path_825" class="st1" d="M2.1,96.4l0.7,0.7l0.8-0.7l-0.9-0.9l-0.8,0.6l-0.6-0.6l-0.8,0.6l0.9,0.9L2.1,96.4z"/>
		<path id="Path_826" class="st1" d="M3.7,99.5c-0.5-0.5-1.2-0.8-1.9-0.9c-0.2,0-0.4,0.2-0.5,0.4c-0.3,0.6-0.5,1.2-0.7,1.8
			c-0.3,0.8-0.5,1.6-0.6,2.5c-0.1,0.4,0.1,0.8,0.4,1c0.4,0.1,0.8,0.2,1.1,0.2h3l0.4-1.3c0.1-0.4,0.2-0.8,0.2-1.3
			C5.1,100.8,4.5,100,3.7,99.5z M4.4,103.1H2c-0.2,0-0.4,0-0.6-0.1c-0.2-0.1-0.4-0.4-0.4-0.6c0-0.6,0.2-1.2,0.4-1.7
			c0.2-0.6,0.5-0.8,0.7-0.8c0.6,0.1,1.1,0.4,1.4,0.8c0.6,0.5,0.9,1.3,0.8,2.1C4.4,102.8,4.4,102.9,4.4,103.1L4.4,103.1z"/>
		<path id="Path_827" class="st1" d="M8.8,98.8l-0.5,1c1.1,0.4,1.8,1.4,1.9,2.6c0,0.2,0,0.5-0.1,0.7H6.7l-0.3,1.3h3.7
			c0.1-0.3,0.3-0.6,0.4-1c0.2-0.6,0.3-1.1,0.4-1.7C10.9,100.4,10.2,99.5,8.8,98.8z"/>
		<path id="Path_828" class="st1" d="M27.7,96.3l0.6,0.7l0.8-0.7l-0.9-0.9l-0.8,0.7l-0.6-0.7L26,96.1l0.9,0.9L27.7,96.3z"/>
		<path id="Path_829" class="st1" d="M46.4,93.4c-0.1-0.2-0.2-0.4-0.2-0.6L45.6,94l-0.1,0.2c-0.1,0.1-0.1,0.2-0.1,0.3
			c0,0.2,0.2,0.3,0.5,0.4l0.7,8.1h-5.2c-0.1,0-0.3,0-0.4-0.1c-0.1-0.1-0.1-0.2-0.1-0.3c0-0.2,0-0.3,0-0.5v-9.3L39.7,94v9.1H28.6
			c0.3-0.5,0.6-1,0.8-1.5c0.2-0.4,0.3-0.9,0.3-1.3c0-0.4-0.1-0.9-0.4-1.2c-0.2-0.3-0.6-0.5-1-0.5c-0.7,0-1.6,0.7-2.6,2.1
			c-0.5,0.5-0.8,1.2-1.1,1.8c0,0.2,0.1,0.3,0.4,0.6H14.5c-0.1,0-0.3,0-0.4-0.1c-0.1-0.1-0.1-0.3-0.1-0.4v-9.7l-1.1,1.1v9.1
			c0,0.4,0,0.7,0.1,1.1c0.1,0.1,0.4,0.2,0.8,0.2h12l0.5-0.4l0.7,0.4h12.3l0.4-0.6c0.1,0.4,0.5,0.6,0.8,0.6h6.2l0.3-1
			c0.2-0.5,0.3-1.1,0.3-1.6c0-0.3,0-0.7,0-1L47,95.3l0.4,0.1l0.6-1.2l-1-0.4C46.8,93.7,46.6,93.6,46.4,93.4z M27.6,102.6
			c-0.1,0.1-0.3,0.1-0.4,0.2c-0.1,0-0.2-0.1-0.3-0.1l-1.1-0.9c0.3-0.5,0.6-1,1-1.4c0.5-0.5,0.9-0.7,1.2-0.7c0.5,0,0.7,0.3,0.7,1
			c0,0.5-0.1,1-0.2,1.4L27.6,102.6z"/>
		<path id="Path_830" class="st1" d="M89.4,95.4L90,96l0.8-0.7l-0.9-0.9l-0.8,0.6l-0.6-0.6l-0.8,0.6l0.9,0.9L89.4,95.4z"/>
		<path id="Path_831" class="st1" d="M89.6,97.7c-0.4,0-0.9,0.4-1.4,1.1c-0.6,0.7-0.9,1.5-0.9,2.4c0,0.5,0.2,0.9,0.6,1.2
			c0.4,0.2,0.8,0.3,1.3,0.2h1.3l0.5-0.7c0,0.1,0,0.1,0,0.2c0,0.2,0,0.3,0,0.5c0,0.3,0,0.4,0,0.4c0,0.1,0,0.1,0,0.1H77l0-0.1
			c0.1-0.2,0.1-0.5,0.2-0.7c0-0.4-0.2-0.9-0.4-1.3c-0.3-0.5-0.6-0.9-1-1.3c-0.4-0.5-1-0.7-1.6-0.8c-0.4,0-0.7,0.1-1.1,0.3
			c-0.5,0.3-1.1,0.6-1.6,0.9l-3,1.9c0.2-0.6,0.3-1.2,0.3-1.8c0-0.4,0-0.8,0-1.2l-0.3-3.8l0.4,0.2l0.6-1.3l-1-0.4
			c-0.3-0.1-0.5-0.3-0.6-0.5c0-0.1-0.1-0.2-0.1-0.4L67.1,94c-0.1,0.1-0.2,0.3-0.2,0.5c0,0.1,0.1,0.3,0.4,0.4c0,0,0.1,0,0.1,0.1
			l0.6,7.5l-1,0.7H56.7c-0.1-0.8-0.5-1.6-1-2.3l-0.8,0.9c0.3,0.4,0.6,0.8,0.8,1.3c0.2,0.4,0.3,0.8,0.5,1.3c-0.3,0.9-0.8,1.6-1.4,2.3
			c-0.4,0.5-1.1,0.8-1.7,0.8c-0.5,0-1-0.1-1.4-0.4c1,1,1.6,1.6,2.1,1.6c0.4-0.1,0.7-0.3,1-0.6c0.4-0.4,0.8-0.9,1.1-1.4
			c0.4-0.7,0.7-1.5,0.9-2.3H91l0-0.2c0.4-1.1,0.5-1.7,0.6-1.9c0.1-0.4,0.1-0.8,0.1-1.2c0-1.1-0.4-2.2-1.2-2.9
			C90.4,97.9,90,97.7,89.6,97.7z M68.2,103.1l2.8-1.8c0.3-0.2,0.6-0.4,0.8-0.5c0.5-0.3,0.8-0.5,0.9-0.5c0.3-0.2,0.6-0.3,1-0.4
			c0.6,0,1.1,0.3,1.5,0.8c0.5,0.5,0.9,1.2,1,2c0,0.1,0.1,0.3,0.1,0.5L68.2,103.1z M89.2,101.3c-0.7,0-1.1-0.2-1.1-0.6
			c0-0.5,0.2-0.9,0.6-1.2c0.2-0.3,0.5-0.4,0.9-0.4c0.4,0,0.8,0.3,0.9,0.6c0.3,0.5,0.4,1.1,0.4,1.7L89.2,101.3z"/>
		<path id="Path_832" class="st1" d="M101.8,96.6l0.7,0.7l0.8-0.7l-0.9-0.9l-0.8,0.6l-0.6-0.6l-0.8,0.6l0.9,0.9L101.8,96.6z"/>
		<path id="Path_833" class="st1" d="M108.7,106.7L108,106l-0.8,0.7l0.9,0.9l0.8-0.6l0.6,0.6l0.8-0.6l-0.9-0.9L108.7,106.7z"/>
		<path id="Path_834" class="st1" d="M119,98.5c-1.2,0-2.8,1.5-4.6,4.6h-4.8l-0.8-2.6l-0.8,0.8l0.6,1.8h-5.3l-1-5.3l-0.9,0.8
			l0.1,0.5l-3,1.6c-0.2,0.1-0.3,0.2-0.5,0.3c-0.1,0.1-0.1,0.3-0.2,0.5c0,0.1-0.1,0.2-0.1,0.2l-0.6,1.7l4.7,0.7l0.5-0.5l0.2,0.8h5.8
			l0.5-0.5l0.1,0.5h5.4l0.5-0.7l2.3,1.4l0.7-1.1l-2.3-1.5c0.3-0.4,0.6-0.9,1-1.2c0.2-0.2,0.5-0.5,0.8-0.7c0.2-0.2,0.6-0.4,0.9-0.4
			c0.4,0,0.8,0.3,1,0.6l0.3-0.6c0.2-0.3,0.3-0.6,0.3-0.9c0-0.2-0.1-0.4-0.2-0.6C119.4,98.6,119.2,98.5,119,98.5z M98.3,102.3
			c0.1-0.3,0.2-0.5,0.3-0.8c0.2-0.1,0.3-0.2,0.5-0.3l2.4-1.3l0.6,3L98.3,102.3z"/>
		<path id="Path_835" class="st1" d="M117.6,107l-0.6-0.7l-0.8,0.7l0.9,0.9l0.8-0.7l0.6,0.7l0.8-0.7l-0.9-0.9L117.6,107z"/>
		<path id="Path_836" class="st1" d="M122.9,98.8l-0.5,1c1.1,0.4,1.8,1.4,1.9,2.6c0,0.2,0,0.5-0.1,0.7h-3.4l-0.3,1.3h3.7
			c0.1-0.3,0.3-0.6,0.4-1c0.2-0.6,0.3-1.1,0.4-1.7C125,100.4,124.3,99.5,122.9,98.8z"/>
		<path id="Path_837" class="st1" d="M133,96.5c-0.1,0.2-0.2,0.5-0.3,0.7c0,0.2,0.1,0.3,0.2,0.4c0.1,0.1,0.2,0.2,0.3,0.3l0.7,0.6
			l0.3-0.3l4.4,4.9h-10.1c-0.1,0-0.3,0-0.4-0.1c-0.1-0.1-0.1-0.3-0.1-0.4v-9.7l-1.1,1.1v9.1c0,0.4,0,0.7,0.1,1.1
			c0.1,0.1,0.4,0.2,0.8,0.2h10.9l0.4-0.7c0.2-0.2,0.3-0.5,0.3-0.8c-0.1-0.3-0.2-0.6-0.5-0.9l-5.1-5.7l6.4-2l0.6-1.3l-7.2,2.2
			L133,96.5z"/>
		<path id="Path_838" class="st1" d="M143.5,92.8l-1.3,1.6c0.2,1.2,0.4,2.4,0.4,3.7c0.1,1.5,0.1,2.6,0.1,3.1c0,1.2-0.1,2.4-0.2,3.6
			l0,0.3c0.5-0.8,0.8-1.7,1-2.7c0.2-0.9,0.2-1.8,0.2-2.6c0-0.9,0-1.7-0.1-2.5c0-0.7-0.1-1.3-0.1-1.7l0-0.4l0.3-0.4L143.5,92.8z"/>
		<path id="Path_839" class="st1" d="M141.5,93.6c0.5-0.6,1.2-1,2-1.2l0.4-0.7c-0.3,0.1-0.6,0.2-0.9,0.2c-0.5,0-0.9-0.2-1.2-0.5
			c0.2-0.5,0.7-0.8,1.3-0.8c0.1,0,0.2,0,0.2,0.1c0.1-0.2,0.1-0.4,0.2-0.6c0-0.1-0.1-0.2-0.4-0.2c-0.5,0-0.9,0.2-1.3,0.5
			c-0.4,0.3-0.6,0.7-0.6,1.2c0,0.5,0.3,0.9,0.8,0.9c-0.1,0.1-0.3,0.3-0.4,0.5C141.6,93.1,141.5,93.4,141.5,93.6z"/>
	</g>
	<rect y="88.3" class="st1" width="144.2" height="0.5"/>
	<g transform="translate(12.187)">
		
			<rect id="Rectangle_421" x="76" y="41.2" transform="matrix(0.707 -0.7072 0.7072 0.707 -14.2612 83.7062)" class="st2" width="35.8" height="35.8"/>
		
			<rect id="Rectangle_422" x="41.7" y="7.4" transform="matrix(0.7071 -0.7072 0.7072 0.7071 -0.428 49.5872)" class="st2" width="35.8" height="35.8"/>
		
			<rect id="Rectangle_423" x="7.5" y="41.2" transform="matrix(0.7071 -0.7071 0.7071 0.7071 -34.3837 35.2439)" class="st2" width="35.8" height="35.8"/>
		<path id="Path_840" class="st1" d="M26,59.3l5.9-8.8c0.1-0.3,0-0.6-0.3-0.7c-0.2-0.1-0.4,0-0.6,0.1l-5.1,7.6v-9.8
			c0-0.3-0.3-0.5-0.6-0.5c-0.2,0-0.4,0.2-0.5,0.5v9.8l-5.1-7.6c-0.2-0.2-0.6-0.2-0.8,0c-0.2,0.2-0.2,0.4-0.1,0.6l5.9,8.8L14,48.5
			v21.2l10.8,10.8v-21l0,0.1c0,0,0,0.1,0.1,0.1l0,0l0,0c0,0,0.1,0.1,0.1,0.1c0,0,0,0,0.1,0c0.2,0.1,0.4,0.1,0.5,0c0,0,0,0,0,0
			c0.1-0.1,0.2-0.1,0.2-0.2l0,0v21l10.8-10.8V48.5L26,59.3z"/>
		<g id="Group_800" transform="translate(37.606 25.272)">
			<g id="Group_799">
				<path id="Path_841" class="st1" d="M22.6,0l0,21.4L44,0L22.6,0z"/>
				<path id="Path_842" class="st1" d="M21.5,0l0,21.4L0,0L21.5,0z"/>
			</g>
		</g>
		<g id="Group_801" transform="translate(71.924 59.078)">
			<path id="Path_843" class="st1" d="M43.9,0l-12,0l0,12.1L43.9,0z"/>
			<path id="Path_844" class="st1" d="M0,0l12,0l0,12.1L0,0z"/>
		</g>
		<path id="Path_845" class="st1" d="M54.9,19.5c-0.3,0-0.7,0.1-1,0.2c-0.6,0.2-1.1,0.8-1.1,1.4c0,0,0,0.1,0,0.1c0,0-0.1,0-0.3-0.2
			c-0.7-0.8-0.7-2,0.1-2.8c0,0,0,0,0,0c0.4-0.3,0.8-0.6,1.2-0.8c0,0,0.6-2.6,4.3-2.5c2.8,0.1,5.1,2,5.7,4.7l0.6,4.5h-9.9l1-2.5
			c-0.7,0-1.3-0.3-1.7-1c-0.3,0.1-0.6,0.1-0.9,0C53.1,20.7,53.3,19.8,54.9,19.5C54.9,19.6,55,19.5,54.9,19.5z"/>
		<path id="Path_846" class="st1" d="M85.1,48.2L85.1,48.2l1.2,1.1c-0.2,0.1-0.3,0.3-0.4,0.5c-0.1,0.3,0.1,0.7,0.4,0.9
			c0.3,0.1,0.7,0,0.9-0.3c0.1-0.2,0.1-0.5,0-0.8c-0.1-0.2-0.3-0.4-0.5-0.5l1.2-1.2h0.2l1.1,1.1c-0.2,0.1-0.3,0.3-0.4,0.5
			c-0.1,0.3,0.1,0.7,0.4,0.9c0.3,0.1,0.7,0,0.9-0.3c0.1-0.2,0.1-0.5,0-0.8c-0.1-0.2-0.3-0.4-0.5-0.5l1.2-1.2h0.2l1.1,1.1
			c-0.2,0.1-0.3,0.3-0.4,0.5c-0.1,0.3,0.1,0.7,0.4,0.9c0.3,0.1,0.7,0,0.9-0.3c0.2-0.5,0-1.1-0.4-1.3l1.2-1.2H94l1.2,1.2
			c-0.2,0.1-0.4,0.3-0.5,0.5c-0.1,0.3-0.1,0.5,0,0.8c0.2,0.3,0.6,0.5,0.9,0.3c0.3-0.2,0.5-0.5,0.4-0.9c0-0.2-0.2-0.4-0.4-0.5
			l1.1-1.1H97l1.2,1.2c-0.2,0.1-0.4,0.3-0.5,0.5c-0.1,0.3-0.1,0.5,0,0.8c0.2,0.3,0.6,0.5,0.9,0.3c0.3-0.2,0.5-0.5,0.4-0.9
			c0-0.2-0.2-0.4-0.4-0.5l1.1-1.1h0.2l1.2,1.2c-0.2,0.1-0.4,0.3-0.5,0.5c-0.1,0.3-0.1,0.5,0,0.8c0.2,0.3,0.6,0.5,0.9,0.3
			c0.3-0.2,0.5-0.5,0.4-0.9c0-0.2-0.2-0.4-0.4-0.5l1.1-1.1h0.1l0,24.1L93.9,81l-8.8-8.8L85.1,48.2z"/>
		<path id="Path_847" class="st2" d="M58.8,17.2c-0.1,0.3-0.4,0.6-0.6,0.8c0.1-0.1,0.2-0.3,0.2-0.5c0-0.3-0.1-0.5-0.4-0.6
			c-0.1-0.1-0.1-0.1-0.2-0.1l0.7-0.2v-0.1l-2.3,0.4C56,17,56,17.7,56,17.7l0,0c0.1-0.6,0.5-0.7,0.5-0.7c0,0.1-0.1,0.1-0.1,0.2
			c0,0.1,0,0.2,0,0.2c0,0.3,0.2,0.7,0.6,0.8c0,0,0,0,0,0c-0.4,0-0.7-0.2-0.9-0.4l0,0c0.3,0.4,0.9,0.7,1.4,0.6
			C58.2,18.3,58.7,17.9,58.8,17.2L58.8,17.2z"/>
		<g id="Group_802" transform="translate(37.05 71.658)">
			<path id="Path_848" class="st3" d="M7.5,1.5"/>
			<path id="Path_849" class="st2" d="M3.5,11.1c-0.3-0.4-0.6-0.8-0.8-1.3C2.1,8.7,2.5,8.4,2.5,8.4l2.9-2.9c1-0.9,1.4-0.3,1.4-0.3
				L7.8,6c0,0.4,0.3,0.7,0.7,0.7c0.4,0,0.7-0.3,0.7-0.7c0-0.2-0.1-0.4-0.2-0.5C8.9,5.4,8.8,5.4,8.6,5.4c0,0-0.1,0-0.1,0h0L7.6,4.4
				C6.4,3.3,7.6,1.9,7.6,1.9c0.2-0.3,0.1-0.4,0.1-0.4S7.5,1.3,7.3,1.6c0,0-1.4,1.2-2.5,0.1L3.8,0.7c0,0,0,0,0-0.1c0,0,0-0.1,0-0.1
				c0-0.1-0.1-0.3-0.2-0.4c-0.3-0.3-0.7-0.3-1,0c-0.3,0.3-0.3,0.7,0,1C2.8,1.3,3,1.4,3.2,1.4l0.9,0.9c0,0,0.5,0.4-0.3,1.4L0.8,6.6
				C0.2,7.3-0.1,8.3,0.1,9.2c0.3,1.1,1,2,1.8,2.8c0.3,0.4,0.9,0.5,1.3,0.2C3.6,11.9,3.7,11.5,3.5,11.1z"/>
		</g>
		<g id="Group_804" transform="translate(32.18 28.186)">
			<g id="Group_803">
				<path id="Path_850" class="st3" d="M42.6,45"/>
				<path id="Path_851" class="st2" d="M38.9,21.5c0,0,12-12.5,16-21.5c0,0-9.3,10.7-18.3,20c0,0-4,4-9.1,8.9
					C22.4,24,18.3,20,18.3,20C9.3,10.7,0,0,0,0c4,9,16,21.5,16,21.5c2.7,2.9,6,6.2,9.3,9.5c-5.4,5.2-11.6,10.9-15.2,13.8
					c0,0,0.7,0.7,1.9-0.2c0.3-0.3,0.8-0.2,1,0.1c0.3,0.3,0.3,0.7,0,1c-1,1.2-0.2,2-0.2,1.9c1.6-1.8,8-7.8,14.6-14.4
					c6.7,6.6,13,12.6,14.6,14.4c0,0,0.8-0.7-0.2-1.9c-0.3-0.3-0.2-0.7,0-1c0.3-0.3,0.7-0.3,1-0.1c1.2,1,1.9,0.3,1.9,0.2
					c-3.6-2.9-9.8-8.6-15.2-13.8C32.9,27.7,36.2,24.4,38.9,21.5z"/>
			</g>
			<path id="Path_852" class="st2" d="M46.5,54.6c0.3-0.4,0.6-0.8,0.8-1.3c0.6-1.2,0.2-1.5,0.2-1.5l-2.9-2.9c-1-0.9-1.4-0.3-1.4-0.3
				l-0.9,0.9c0,0.2-0.1,0.4-0.2,0.5c-0.3,0.3-0.7,0.3-1,0c-0.3-0.3-0.3-0.7,0-1c0.1-0.1,0.2-0.2,0.4-0.2c0,0,0.1,0,0.1,0h0l0.9-0.9
				c1.2-1.1-0.1-2.5-0.1-2.5c-0.2-0.3-0.1-0.4-0.1-0.4s0.2-0.1,0.4,0.1c0,0,1.4,1.2,2.5,0.1l0.9-0.9c0,0,0,0,0-0.1c0,0,0-0.1,0-0.1
				c0.1-0.4,0.4-0.6,0.8-0.5c0.4,0.1,0.6,0.4,0.5,0.8c-0.1,0.3-0.3,0.6-0.7,0.6L46,45.8c0,0-0.5,0.4,0.3,1.4l2.9,2.9
				c0.7,0.7,0.9,1.6,0.7,2.6c-0.3,1.1-1,2-1.8,2.8c-0.3,0.4-0.9,0.5-1.3,0.2C46.5,55.4,46.4,55,46.5,54.6z"/>
		</g>
	</g>
</g>
</svg>
